<svg width="14" height="13" viewBox="0 0 14 13" fill="none" xmlns="http://www.w3.org/2000/svg">
<path d="M7.43783 12.5833L12.9378 7.08332C13.0212 6.99999 13.0803 6.90971 13.1153 6.81249C13.1498 6.71526 13.167 6.6111 13.167 6.49999C13.167 6.38888 13.1498 6.28471 13.1153 6.18749C13.0803 6.09026 13.0212 5.99999 12.9378 5.91665L7.43783 0.416654C7.28505 0.263876 7.09421 0.183876 6.86533 0.176654C6.63588 0.169987 6.43783 0.249987 6.27116 0.416654C6.10449 0.569432 6.01755 0.760265 6.01033 0.989154C6.00366 1.2186 6.08366 1.41665 6.25033 1.58332L10.3337 5.66665H1.02116C0.785048 5.66665 0.586992 5.74638 0.426992 5.90582C0.267548 6.06582 0.187825 6.26388 0.187825 6.49999C0.187825 6.7361 0.267548 6.93388 0.426992 7.09332C0.586992 7.25332 0.785048 7.33332 1.02116 7.33332H10.3337L6.25033 11.4167C6.09755 11.5694 6.01755 11.7639 6.01033 12C6.00366 12.2361 6.08366 12.4305 6.25033 12.5833C6.4031 12.75 6.59755 12.8333 6.83366 12.8333C7.06977 12.8333 7.27116 12.75 7.43783 12.5833Z" fill="white"/>
</svg>
