<svg width="14" height="13" viewBox="0 0 14 13" fill="none" xmlns="http://www.w3.org/2000/svg">
<path d="M7.93783 12.5833L13.4378 7.08332C13.5212 6.99999 13.5803 6.90971 13.6153 6.81249C13.6498 6.71526 13.667 6.6111 13.667 6.49999C13.667 6.38888 13.6498 6.28471 13.6153 6.18749C13.5803 6.09026 13.5212 5.99999 13.4378 5.91665L7.93783 0.416654C7.78505 0.263876 7.59421 0.183876 7.36533 0.176654C7.13588 0.169987 6.93783 0.249987 6.77116 0.416654C6.60449 0.569432 6.51755 0.760265 6.51033 0.989154C6.50366 1.2186 6.58366 1.41665 6.75033 1.58332L10.8337 5.66665H1.52116C1.28505 5.66665 1.08699 5.74638 0.926992 5.90582C0.767548 6.06582 0.687825 6.26388 0.687825 6.49999C0.687825 6.7361 0.767548 6.93388 0.926992 7.09332C1.08699 7.25332 1.28505 7.33332 1.52116 7.33332H10.8337L6.75033 11.4167C6.59755 11.5694 6.51755 11.7639 6.51033 12C6.50366 12.2361 6.58366 12.4305 6.75033 12.5833C6.9031 12.75 7.09755 12.8333 7.33366 12.8333C7.56977 12.8333 7.77116 12.75 7.93783 12.5833Z" fill="#40196D"/>
</svg>
