<svg width="185" height="58" viewBox="0 0 185 58" fill="none" xmlns="http://www.w3.org/2000/svg">
<path d="M21.5605 0.489092L1.51754 13.0144C1.05276 13.3053 0.669612 13.7096 0.404138 14.1893C0.138664 14.6691 -0.000408939 15.2085 9.03217e-07 15.7568V43.9665C-0.000410934 44.5671 0.166699 45.1559 0.482551 45.6668C0.798402 46.1777 1.25048 46.5903 1.78796 46.8584L21.831 56.8767C22.2794 57.101 22.7739 57.2177 23.2753 57.2177C23.7767 57.2177 24.2712 57.101 24.7197 56.8767L44.7627 46.8584C45.2993 46.5896 45.7506 46.1767 46.0658 45.6659C46.381 45.1551 46.5478 44.5667 46.5475 43.9665V15.7568C46.5476 15.2085 46.4084 14.6692 46.1429 14.1895C45.8775 13.7099 45.4945 13.3055 45.0299 13.0144L24.9869 0.489092C24.4727 0.169416 23.8792 0 23.2737 0C22.6682 0 22.0748 0.169416 21.5605 0.489092ZM40.7223 40.1456L23.2721 48.8722L5.81883 40.1456V33.6014L23.2721 22.6923L40.7223 33.6014V40.1456ZM40.7223 24.8747L23.2721 13.9656L5.81883 24.8747V19.0559L23.2721 8.14679L40.7223 19.0559V24.8747Z" fill="#40196D"/>
<path d="M53.6963 45.0577L68.3149 11.5859H74.6174L89.341 45.0577H82.9781L70.1665 14.8342H72.7499L59.9892 45.0577H53.6963ZM61.4462 37.2219V32.1952H81.3843V37.2219H61.4462Z" fill="#40196D"/>
<path d="M91.3543 36.5854H96.6737C96.9399 37.8809 97.6998 39.0219 98.7925 39.7668C99.9293 40.5749 101.462 40.98 103.39 40.9821C104.38 41.0208 105.369 40.8807 106.31 40.5685C106.92 40.3638 107.447 39.9649 107.809 39.4328C108.104 38.9322 108.256 38.3598 108.248 37.7784C108.269 37.4576 108.223 37.1359 108.114 36.8337C108.004 36.5314 107.833 36.2551 107.611 36.0223C107.065 35.5447 106.421 35.1918 105.725 34.9883C104.712 34.6702 103.676 34.4288 102.626 34.2661C101.354 33.9544 100.097 33.6097 98.8562 33.2322C97.6844 32.8844 96.5545 32.4085 95.487 31.8133C94.5392 31.2911 93.7323 30.5465 93.1359 29.6435C92.5414 28.6705 92.2449 27.5445 92.2833 26.4048C92.2679 25.2925 92.5443 24.1956 93.085 23.2234C93.6367 22.2589 94.4058 21.4365 95.3311 20.8214C96.3778 20.1319 97.5297 19.6172 98.7416 19.2975C100.141 18.9302 101.583 18.7526 103.03 18.7694C105.266 18.7694 107.133 19.131 108.633 19.8543C110.05 20.5056 111.239 21.5688 112.043 22.9053C112.833 24.2686 113.235 25.8221 113.204 27.3974H108.143C107.866 26.0231 107.335 25.0209 106.552 24.4037C105.769 23.7865 104.57 23.4716 102.986 23.4716C101.401 23.4716 100.199 23.7483 99.3715 24.2987C98.9836 24.536 98.6648 24.871 98.4471 25.2702C98.2293 25.6694 98.1203 26.1188 98.1308 26.5734C98.1167 26.9054 98.1811 27.2359 98.3187 27.5383C98.4564 27.8407 98.6634 28.1063 98.923 28.3137C99.6144 28.821 100.393 29.1973 101.22 29.424C102.219 29.7315 103.385 30.0412 104.72 30.353C105.96 30.6966 107.132 31.0497 108.235 31.4124C109.272 31.7452 110.268 32.1957 111.203 32.755C112.121 33.2888 112.874 34.0654 113.379 34.9994C113.884 35.9333 114.122 36.9885 114.067 38.0489C114.103 39.5123 113.655 40.9469 112.794 42.1306C111.857 43.3341 110.592 44.2403 109.151 44.7394C107.312 45.3825 105.372 45.6885 103.425 45.6429C101.704 45.6769 99.9877 45.4505 98.3344 44.9716C97.054 44.5967 95.8484 44.0025 94.7712 43.2155C93.9045 42.5798 93.1607 41.7918 92.576 40.8899C92.0991 40.1588 91.7415 39.3567 91.5166 38.5133C91.3415 37.8867 91.2865 37.2325 91.3543 36.5854Z" fill="#40196D"/>
<path d="M116.459 19.3327H134.644V24.0349H116.459V19.3327ZM122.66 12.4067H128.443V45.0577H122.66V12.4067Z" fill="#40196D"/>
<path d="M138.105 19.3327H143.832V45.0578H138.105V19.3327ZM153.138 24.2417C151.469 24.1955 149.819 24.6058 148.366 25.4283C147.11 26.1538 146.025 27.1413 145.184 28.3234C144.457 29.3276 143.899 30.4442 143.533 31.6289L143.482 28.737C143.559 28.1517 143.68 27.5732 143.845 27.0063C144.09 26.1324 144.409 25.2809 144.799 24.4612C145.262 23.4827 145.852 22.5701 146.555 21.7474C147.314 20.856 148.246 20.1276 149.295 19.6063C150.494 19.0283 151.813 18.7447 153.144 18.7792L153.138 24.2417Z" fill="#40196D"/>
<path d="M170.133 45.6273C167.485 45.6709 164.859 45.1425 162.434 44.0779C160.242 43.112 158.376 41.5333 157.06 39.5316C155.752 37.5337 155.098 35.1063 155.101 32.2494C155.103 29.3924 155.756 26.9724 157.06 24.9893C158.377 22.9683 160.24 21.363 162.434 20.3604C164.851 19.267 167.48 18.7237 170.133 18.7696C172.765 18.7216 175.374 19.2652 177.768 20.3604C179.936 21.3679 181.772 22.9711 183.062 24.983C184.354 27 185 29.42 185 32.243C185 35.0999 184.354 37.5273 183.062 39.5253C181.773 41.5199 179.935 43.0988 177.768 44.0715C175.367 45.1401 172.761 45.6711 170.133 45.6273ZM170.133 40.9251C171.702 40.944 173.254 40.6091 174.676 39.9452C176.035 39.3071 177.176 38.2824 177.956 36.9992C178.801 35.5622 179.222 33.9156 179.171 32.2494C179.223 30.5821 178.801 28.9343 177.956 27.4963C177.17 26.2094 176.045 25.1638 174.705 24.4739C173.289 23.755 171.72 23.3914 170.133 23.4145C168.539 23.3923 166.963 23.7466 165.532 24.4485C164.169 25.1234 163.016 26.1601 162.202 27.4454C161.353 28.754 160.929 30.3553 160.929 32.2494C160.878 33.9189 161.309 35.5677 162.17 36.9992C162.969 38.2847 164.127 39.3086 165.501 39.9452C166.953 40.6123 168.535 40.947 170.133 40.9251Z" fill="#40196D"/>
</svg>
