<svg width="186" height="58" viewBox="0 0 186 58" fill="none" xmlns="http://www.w3.org/2000/svg">
<path d="M21.676 0.49171L1.52567 13.084C1.0584 13.3765 0.673197 13.783 0.406302 14.2653C0.139407 14.7476 -0.000411128 15.2899 9.08052e-07 15.8411V44.2019C-0.000413134 44.8057 0.167592 45.3977 0.485134 45.9113C0.802676 46.4249 1.25717 46.8398 1.79753 47.1092L21.9478 57.1812C22.3987 57.4067 22.8958 57.5241 23.3999 57.5241C23.904 57.5241 24.4012 57.4067 24.852 57.1812L45.0023 47.1092C45.5419 46.839 45.9955 46.4239 46.3124 45.9104C46.6293 45.3969 46.797 44.8053 46.7967 44.2019V15.8411C46.7968 15.2899 46.6568 14.7478 46.39 14.2655C46.1231 13.7832 45.738 13.3767 45.271 13.084L25.1207 0.49171C24.6037 0.170323 24.0071 0 23.3983 0C22.7896 0 22.193 0.170323 21.676 0.49171ZM40.9403 40.3605L23.3967 49.1339L5.84998 40.3605V33.7813L23.3967 22.8138L40.9403 33.7813V40.3605ZM40.9403 25.0079L23.3967 14.0404L5.84998 25.0079V19.1579L23.3967 8.1904L40.9403 19.1579V25.0079Z" fill="white"/>
<path d="M53.9834 45.2987L68.6803 11.6477H75.0165L89.8189 45.2987H83.422L70.5418 14.9133H73.139L60.3099 45.2987H53.9834ZM61.7748 37.4209V32.3673H81.8196V37.4209H61.7748Z" fill="white"/>
<path d="M91.8437 36.7814H97.1916C97.4592 38.0838 98.2232 39.2309 99.3217 39.9798C100.465 40.7922 102.005 41.1995 103.944 41.2016C104.939 41.2406 105.934 41.0997 106.88 40.7858C107.493 40.58 108.022 40.1789 108.386 39.644C108.684 39.1408 108.836 38.5652 108.828 37.9808C108.849 37.6583 108.803 37.3349 108.693 37.031C108.583 36.7271 108.411 36.4493 108.188 36.2152C107.639 35.7351 106.991 35.3804 106.291 35.1757C105.272 34.856 104.231 34.6133 103.176 34.4497C101.897 34.1362 100.633 33.7897 99.3857 33.4102C98.2077 33.0605 97.0718 32.5821 95.9986 31.9837C95.0456 31.4587 94.2345 30.7101 93.6349 29.8023C93.0371 28.8241 92.7391 27.6921 92.7777 26.5463C92.7622 25.428 93.0401 24.3252 93.5837 23.3478C94.1383 22.3782 94.9115 21.5513 95.8418 20.933C96.8941 20.2398 98.0521 19.7223 99.2706 19.4009C100.677 19.0317 102.128 18.8531 103.582 18.87C105.83 18.87 107.707 19.2336 109.215 19.9607C110.64 20.6155 111.834 21.6844 112.643 23.028C113.437 24.3986 113.841 25.9605 113.811 27.5442H108.722C108.444 26.1625 107.91 25.155 107.123 24.5345C106.336 23.914 105.13 23.5973 103.537 23.5973C101.944 23.5973 100.735 23.8756 99.9039 24.4289C99.5139 24.6675 99.1934 25.0043 98.9745 25.4056C98.7555 25.807 98.6459 26.2588 98.6565 26.7158C98.6423 27.0495 98.707 27.3819 98.8454 27.6859C98.9838 27.9899 99.1919 28.2569 99.4529 28.4654C100.148 28.9754 100.931 29.3538 101.762 29.5816C102.766 29.8908 103.939 30.2021 105.28 30.5156C106.528 30.861 107.706 31.216 108.815 31.5807C109.858 31.9153 110.859 32.3682 111.799 32.9304C112.722 33.4671 113.479 34.2479 113.986 35.1868C114.494 36.1258 114.733 37.1866 114.678 38.2527C114.714 39.724 114.264 41.1662 113.398 42.3563C112.457 43.5662 111.185 44.4772 109.736 44.979C107.887 45.6255 105.937 45.9332 103.979 45.8874C102.249 45.9215 100.523 45.694 98.8612 45.2125C97.574 44.8356 96.3619 44.2382 95.2789 43.447C94.4076 42.8079 93.6598 42.0156 93.072 41.1089C92.5925 40.374 92.233 39.5675 92.0069 38.7196C91.8309 38.0896 91.7755 37.432 91.8437 36.7814Z" fill="white"/>
<path d="M117.083 19.4359H135.365V24.1633H117.083V19.4359ZM123.317 12.4729H129.132V45.2987H123.317V12.4729Z" fill="white"/>
<path d="M138.845 19.4361H144.602V45.2988H138.845V19.4361ZM153.957 24.3713C152.279 24.3248 150.621 24.7373 149.16 25.5643C147.897 26.2937 146.806 27.2864 145.961 28.4749C145.23 29.4844 144.669 30.607 144.301 31.7981L144.25 28.8907C144.327 28.3023 144.449 27.7206 144.615 27.1507C144.861 26.2721 145.182 25.4161 145.574 24.592C146.039 23.6082 146.633 22.6907 147.34 21.8637C148.103 20.9674 149.04 20.2352 150.094 19.7111C151.299 19.13 152.626 18.8449 153.964 18.8795L153.957 24.3713Z" fill="white"/>
<path d="M171.044 45.8713C168.382 45.9152 165.742 45.3839 163.304 44.3136C161.101 43.3426 159.225 41.7554 157.902 39.743C156.586 37.7344 155.93 35.294 155.932 32.4218C155.934 29.5495 156.591 27.1166 157.902 25.1229C159.225 23.091 161.099 21.4771 163.304 20.4691C165.734 19.3699 168.378 18.8237 171.044 18.8699C173.691 18.8216 176.314 19.3681 178.721 20.4691C180.9 21.482 182.746 23.0939 184.043 25.1165C185.341 27.1443 185.991 29.5773 185.991 32.4154C185.991 35.2876 185.341 37.728 184.043 39.7366C182.747 41.7419 180.899 43.3293 178.721 44.3072C176.306 45.3815 173.687 45.9153 171.044 45.8713ZM171.044 41.144C172.622 41.163 174.183 40.8263 175.612 40.1588C176.978 39.5173 178.125 38.4871 178.909 37.1971C179.759 35.7524 180.182 34.0969 180.131 32.4218C180.183 30.7456 179.759 29.0889 178.909 27.6433C178.119 26.3495 176.988 25.2982 175.641 24.6047C174.218 23.8819 172.64 23.5164 171.044 23.5396C169.442 23.5173 167.858 23.8734 166.419 24.5791C165.048 25.2576 163.89 26.2999 163.071 27.5921C162.218 28.9077 161.791 30.5176 161.791 32.4218C161.74 34.1002 162.173 35.7579 163.039 37.1971C163.843 38.4894 165.007 39.5188 166.387 40.1588C167.847 40.8294 169.438 41.166 171.044 41.144Z" fill="white"/>
</svg>
